<svg xmlns="http://www.w3.org/2000/svg" viewBox="0 0 200 200">
  <rect width="200" height="200" rx="30" fill="#FFFDE7"/>
  <path d="M60 120 Q55 90 80 75 Q100 65 110 75 Q125 65 140 80 Q155 100 145 120 Q140 140 120 145 L80 145 Q60 140 60 120Z" fill="#FFEB3B"/>
  <path d="M60 120 Q55 90 80 75 Q100 65 110 75 Q125 65 140 80 Q155 100 145 120 Q140 140 120 145 L80 145 Q60 140 60 120Z" fill="#FDD835" opacity="0.7"/>
  <path d="M80 145 L78 150 Q90 155 120 150 L118 145" fill="#F9A825"/>
  <path d="M108 73 Q115 55 125 60" stroke="#8D6E63" stroke-width="3" fill="none" stroke-linecap="round"/>
  <ellipse cx="85" cy="110" rx="15" ry="8" fill="#FFF176" opacity="0.4" transform="rotate(-15 85 110)"/>
</svg>