<svg xmlns="http://www.w3.org/2000/svg" viewBox="0 0 100 100" fill="none">
  <rect width="100" height="100" rx="8" fill="#f3f4f6"/>
  <path d="M15 65 C15 65 20 54 36 52 L58 52 C66 52 74 56 82 60 C86 62 86 67 82 70 L15 70 C13 70 13 67 15 65Z" fill="#374151"/>
  <path d="M15 65 C15 65 20 54 36 52 L58 52 C62 52 58 60 52 60 L20 60 C17 60 15 62 15 65Z" fill="#1f2937"/>
  <path d="M57 52 L57 40 C57 38 59 36 62 36 L70 36 C72 36 74 38 74 42 L74 52Z" fill="#374151"/>
  <text x="50" y="86" text-anchor="middle" font-family="Arial, sans-serif" font-size="6" fill="#374151">FORMAL SHOES</text>
</svg>
