<svg xmlns="http://www.w3.org/2000/svg" viewBox="0 0 100 100" fill="none">
  <rect width="100" height="100" rx="8" fill="#f3f4f6"/>
  <rect x="8" y="30" width="84" height="40" rx="4" fill="#374151"/>
  <rect x="12" y="34" width="7" height="6" rx="1" fill="#9ca3af"/>
  <rect x="22" y="34" width="7" height="6" rx="1" fill="#9ca3af"/>
  <rect x="32" y="34" width="7" height="6" rx="1" fill="#9ca3af"/>
  <rect x="42" y="34" width="7" height="6" rx="1" fill="#9ca3af"/>
  <rect x="52" y="34" width="7" height="6" rx="1" fill="#9ca3af"/>
  <rect x="62" y="34" width="7" height="6" rx="1" fill="#9ca3af"/>
  <rect x="72" y="34" width="9" height="6" rx="1" fill="#6b7280"/>
  <rect x="12" y="43" width="10" height="6" rx="1" fill="#6b7280"/>
  <rect x="25" y="43" width="7" height="6" rx="1" fill="#9ca3af"/>
  <rect x="35" y="43" width="7" height="6" rx="1" fill="#9ca3af"/>
  <rect x="45" y="43" width="7" height="6" rx="1" fill="#9ca3af"/>
  <rect x="55" y="43" width="7" height="6" rx="1" fill="#9ca3af"/>
  <rect x="65" y="43" width="10" height="6" rx="1" fill="#6b7280"/>
  <rect x="26" y="52" width="48" height="6" rx="1" fill="#6b7280"/>
  <text x="50" y="84" text-anchor="middle" font-family="Arial, sans-serif" font-size="7" fill="#374151">KEYBOARD</text>
</svg>
