<svg xmlns="http://www.w3.org/2000/svg" viewBox="0 0 100 100" fill="none">
  <rect width="100" height="100" rx="8" fill="#f3f4f6"/>
  <path d="M50 70 C35 70 22 58 22 44 C22 30 33 20 46 20 C52 20 56 24 58 28 C60 24 64 22 68 24 C74 28 74 38 66 48 C62 56 56 70 50 70Z" fill="#f59e0b"/>
  <path d="M50 70 C38 70 26 60 26 46 C26 34 36 25 47 25 C52 25 56 29 58 32 C56 42 54 62 50 70Z" fill="#fbbf24"/>
  <path d="M58 22 C60 16 65 14 66 16" stroke="#16a34a" stroke-width="2" fill="none" stroke-linecap="round"/>
  <text x="50" y="86" text-anchor="middle" font-family="Arial, sans-serif" font-size="7" fill="#374151">MANGO</text>
</svg>
