<svg xmlns="http://www.w3.org/2000/svg" viewBox="0 0 100 100" fill="none">
  <rect width="100" height="100" rx="8" fill="#f3f4f6"/>
  <path d="M30 65 C25 50 30 30 50 22 C70 30 75 50 70 65 Z" fill="#16a34a"/>
  <path d="M35 62 C30 50 34 34 50 27 C66 34 70 50 65 62 Z" fill="#15803d"/>
  <line x1="50" y1="25" x2="50" y2="64" stroke="#14532d" stroke-width="1.5"/>
  <path d="M50 40 C42 36 35 40 32 47" stroke="#14532d" stroke-width="1" fill="none"/>
  <path d="M50 40 C58 36 65 40 68 47" stroke="#14532d" stroke-width="1" fill="none"/>
  <path d="M50 52 C42 48 36 52 34 57" stroke="#14532d" stroke-width="1" fill="none"/>
  <text x="50" y="82" text-anchor="middle" font-family="Arial, sans-serif" font-size="7" fill="#374151">SPINACH</text>
</svg>
