<svg xmlns="http://www.w3.org/2000/svg" viewBox="0 0 100 100" fill="none">
  <rect width="100" height="100" rx="8" fill="#f3f4f6"/>
  <path d="M20 55 C20 35 35 20 50 20 C65 20 80 35 80 55 Z" fill="#16a34a"/>
  <path d="M22 55 C22 37 36 24 50 24 C64 24 78 37 78 55 Z" fill="#15803d"/>
  <path d="M25 55 C25 40 37 27 50 27 C63 27 75 40 75 55 Z" fill="#ef4444"/>
  <ellipse cx="38" cy="47" rx="2" ry="2" fill="#1f2937"/>
  <ellipse cx="50" cy="43" rx="2" ry="2" fill="#1f2937"/>
  <ellipse cx="62" cy="47" rx="2" ry="2" fill="#1f2937"/>
  <ellipse cx="44" cy="52" rx="2" ry="2" fill="#1f2937"/>
  <ellipse cx="56" cy="52" rx="2" ry="2" fill="#1f2937"/>
  <text x="50" y="74" text-anchor="middle" font-family="Arial, sans-serif" font-size="7" fill="#374151">WATERMELON</text>
</svg>
